<?xml version="1.0" encoding="UTF-8" standalone="no"?>
<!-- Created with Inkscape (http://www.inkscape.org/) -->

<svg
   version="1.1"
   id="svg1"
   width="1309"
   height="1279"
   viewBox="0 0 1309 1279"
   sodipodi:docname="YEYE_favico_white.svg"
   inkscape:version="1.4.2 (f4327f4, 2025-05-13)"
   xmlns:inkscape="http://www.inkscape.org/namespaces/inkscape"
   xmlns:sodipodi="http://sodipodi.sourceforge.net/DTD/sodipodi-0.dtd"
   xmlns="http://www.w3.org/2000/svg"
   xmlns:svg="http://www.w3.org/2000/svg">
  <defs
     id="defs1" />
  <sodipodi:namedview
     id="namedview1"
     pagecolor="#ffffff"
     bordercolor="#000000"
     borderopacity="0.25"
     inkscape:showpageshadow="2"
     inkscape:pageopacity="0.0"
     inkscape:pagecheckerboard="0"
     inkscape:deskcolor="#d1d1d1"
     inkscape:zoom="0.60437842"
     inkscape:cx="771.8674"
     inkscape:cy="639.5"
     inkscape:window-width="1920"
     inkscape:window-height="991"
     inkscape:window-x="-9"
     inkscape:window-y="-9"
     inkscape:window-maximized="1"
     inkscape:current-layer="g1" />
  <g
     inkscape:groupmode="layer"
     inkscape:label="Image"
     id="g1">
    <path
       style="fill:#000000"
       d="M 0,642.80919 V 3.3091846 H 654.5 1309 V 642.80919 1282.3092 H 654.5 0 Z m 1077.1849,568.60241 c 1.2733,-0.4937 6.5901,-5.7257 11.8151,-11.6266 5.225,-5.901 9.95,-11.2346 10.5,-11.8524 2.5425,-2.8562 12.7514,-15.8974 18.1014,-23.1234 20.1304,-27.189 40.0692,-62.6664 55.4636,-98.6867 10.3545,-24.228 19.5207,-50.0567 18.4049,-51.862 -0.3234,-0.5232 -1.8724,-0.9513 -3.4423,-0.9513 -2.6184,0 -3.6999,1.3846 -13.0835,16.75 -5.6261,9.2125 -11.2395,18.325 -12.4743,20.25 -1.2347,1.925 -6.1803,9.8 -10.9901,17.5 -37.6828,60.3262 -72.9435,101.3403 -111.4797,129.6698 -4.125,3.0324 -8.5125,6.0506 -9.75,6.7071 -2.4153,1.2812 -3.0554,4.8921 -1,5.6418 0.6875,0.2507 10.475,0.8433 21.75,1.3168 11.275,0.4736 21.2582,0.9293 22.1849,1.0127 0.9267,0.084 2.7267,-0.2521 4,-0.7458 z m -371.77464,-2.7291 c 0.7179,-1.8709 0.87984,-1.6407 -10.4629,-14.8733 -19.37156,-22.5992 -47.8501,-56.1647 -53.73812,-63.3371 -19.34231,-23.5613 -29.23472,-45.454 -29.19071,-64.6012 l 0.0185,-8.0617 12.08177,-14 c 17.68093,-20.4881 16.95963,-19.7978 46.31613,-44.32551 14.88577,-12.4373 33.14004,-27.7281 40.56504,-33.9797 16.40374,-13.81145 11.96168,-10.09649 45,-37.63418 28.47972,-23.73806 31.27071,-26.12016 57.5,-49.07614 33.49693,-29.31665 32.33966,-28.12412 64.12898,-66.08361 5.02093,-5.99548 13.45843,-16.06415 18.75,-22.37482 C 901.67054,784.02457 906,778.31921 906,777.65667 c 0,-1.56284 -2.79388,-4.34748 -4.36191,-4.34748 -0.67049,0 -5.88508,5.64096 -11.58798,12.53546 C 871.81923,807.88479 830.74502,845.85204 783,884.7972 c -4.675,3.81335 -8.9959,7.40106 -9.602,7.97268 -0.60609,0.57162 -3.29299,2.83931 -5.97088,5.03931 -2.67789,2.2 -7.80699,6.49607 -11.398,9.54681 -28.46106,24.1791 -79.2572,66.05839 -79.64862,65.66699 -0.50439,-0.5044 3.52136,-10.8192 13.15813,-33.7138 30.04742,-71.38541 37.04319,-96.05493 38.17192,-134.60751 0.98628,-33.68666 -2.66015,-55.49221 -12.6911,-75.89249 -7.69023,-15.63989 -12.55376,-34.41325 -13.21232,-51 -0.25781,-6.49313 -0.13417,-6.97829 1.70747,-6.70023 10.06155,1.51914 16.67781,1.33659 23.18423,-0.63967 20.58761,-6.2533 42.91257,-30.5112 60.79082,-66.05421 5.94365,-11.81634 10.51619,-22.87827 13.02692,-31.51489 0.91765,-3.15662 1.8122,-5.59344 1.98787,-5.41515 0.17568,0.17828 2.37345,9.77415 4.88394,21.32415 6.07157,27.93342 9.92351,42.6349 14.80363,56.5 13.05951,37.10395 32.03056,60.54393 60.64452,74.9303 3.64144,1.83083 7.46936,3.05482 9,2.87777 l 2.66347,-0.30807 0.10743,-21 c 0.15423,-30.14709 4.10562,-53.71761 14.41715,-86 7.95406,-24.90187 29.24204,-75.14937 43.84906,-103.5 13.56267,-26.32368 20.66366,-45.79066 25.24035,-69.19508 2.8285,-14.46445 3.09534,-41.15936 0.52599,-52.6203 -1.86419,-8.31551 -1.94544,-9.18462 -0.85862,-9.18462 1.62439,0 11.07806,9.90397 13.66143,14.31216 1.4815,2.528 3.58454,4.87913 4.67342,5.22472 2.78954,0.88537 4.87869,-1.19891 4.38429,-4.3741 -1.9979,-12.83146 -3.18156,-17.80045 -5.99401,-25.16278 -5.80618,-15.19921 -12.93711,-26.43237 -26.87822,-42.34048 l -5.99468,-6.84049 1.30353,-4.65951 c 3.37772,-12.07379 4.21528,-17.78032 4.74886,-32.35531 0.61521,-16.80467 -0.39658,-28.48901 -3.87978,-44.80421 -2.15433,-10.09086 -3.42795,-12.46612 -6.12866,-11.42976 -1.43808,0.55185 -1.67754,2.31758 -1.67754,12.37008 0,6.44949 -0.31488,12.04122 -0.69972,12.42607 -0.38485,0.38485 -2.76618,-5.50265 -5.29185,-13.08333 -9.23612,-27.72186 -22.59227,-50.93824 -41.50671,-72.14924 -10.01088,-11.22638 -30.18076,-25.13189 -45.83634,-31.60046 -9.3813,-3.87616 -12.28808,-4.13146 -14.06325,-1.23519 -0.94471,1.54134 -0.0361,2.75542 6.36151,8.5 17.01059,15.27431 29.09672,29.30691 37.26951,43.27174 4.67157,7.9823 10.19873,19.83154 9.55217,20.47811 -0.21744,0.21744 -3.79068,-3.75441 -7.94054,-8.82634 C 859.36616,156.89133 815.38761,123.58356 773,107.50739 c -15.41156,-5.84509 -23.10385,-7.902012 -36.5,-9.760152 -22.57784,-3.13169 -63.5108,-0.48739 -94,6.072492 -15.50758,3.33652 -101.69435,16.58671 -111.5,17.1418 -9.64076,0.54575 -11.15387,0.37369 -18.4904,-2.10261 -19.92163,-6.72414 -36.3197,-22.550772 -43.38549,-41.873582 -2.27224,-6.21389 -2.61629,-8.68468 -2.56578,-18.426153 0.0573,-11.043824 0.0168,-11.25 -2.20982,-11.25 -1.91573,0 -2.57578,0.995989 -4.24802,6.410071 -4.90248,15.872382 -6.03146,36.914972 -2.68743,50.089934 5.63875,22.21583 21.28587,41.45688 42.08694,51.75373 12.02785,5.95398 18.82636,7.73119 47,12.28633 9.7832,1.58176 26.36699,4.53126 112.40775,19.99221 46.83545,8.41602 49.7884,8.77808 51.39522,6.30155 1.55124,-2.39086 0.0621,-3.83309 -12.73915,-12.33795 -26.59887,-17.67167 -55.39461,-30.35212 -87.44165,-38.50569 -21.8007,-5.54664 -21.70567,-6.31808 0.37783,-3.06734 15.39414,2.26604 29.96013,5.86347 41,10.12594 4.4,1.69884 9.125,3.44578 10.5,3.8821 5.08533,1.61371 25.84754,12.55331 37.07661,19.53567 19.29881,12.0002 52.74563,38.53345 48.57382,38.53345 -0.28393,0 -12.58393,-2.74527 -27.33333,-6.10059 C 705.56769,202.85327 688.325,199.29184 682,198.29431 631.9459,190.40018 602.18981,185.74095 582.5,182.71452 553.35652,178.23501 541.49541,175.9675 530.42321,172.7589 494.92791,162.47276 465.4536,139.73673 452.93649,112.98683 447.18981,100.70579 445,87.768168 445,66.097278 c 0,-0.43345 -1.05404,-0.78809 -2.34231,-0.78809 -1.94635,0 -2.94868,1.31009 -5.92938,7.75 -9.20231,19.88189 -13.10158,35.953312 -13.16223,54.250002 -0.0478,14.43208 1.73133,23.03331 7.22318,34.91969 6.5934,14.27056 25.87262,30.64514 44.1904,37.53262 17.47315,6.5699 34.95839,9.09876 76.46469,11.05897 17.08061,0.80667 35.33065,1.95622 40.55565,2.55456 22.93305,2.62619 59.16596,11.73254 69.56277,17.48309 l 2.93723,1.62461 -3,-0.67719 c -22.79794,-5.14614 -45.16662,-7.86464 -78,-9.47945 -55.46207,-2.72773 -83.40916,-6.7296 -109.42434,-15.66895 -11.65587,-4.0052 -26.36784,-10.49822 -28.41145,-12.5392 -0.72075,-0.71981 -3.01861,-2.65875 -5.10637,-4.30875 -10.26318,-8.11119 -20.73522,-26.09884 -25.2552,-43.3804 -3.1109,-11.89416 -4.19662,-35.24559 -2.36948,-50.962162 0.65254,-5.61291 0.9042,-11.09452 0.55925,-12.18136 -0.87444,-2.7551 -5.52335,-2.56788 -7.58204,0.30534 -16.30444,22.755422 -26.31443,41.308852 -34.82135,64.541122 -7.60829,20.77814 -11.56102,39.87386 -13.49142,65.17746 l -1.18249,15.5 -1.20755,-7.79085 c -5.49695,-35.46493 6.26908,-76.65099 37.72654,-132.058742 6.73083,-11.85539 7.16969,-12.97519 5.67207,-14.47282 -1.49763,-1.49762 -1.89794,-1.47527 -5.17375,0.28887 -1.95279,1.05165 -7.68646,6.22667 -12.74148,11.50005 -31.82467,33.199392 -55.90857,78.790432 -65.3505,123.709132 -2.44805,11.64624 -2.70234,14.89135 -2.76806,35.32436 -0.0774,24.05371 0.51142,28.51427 6.12227,46.3806 6.50722,20.72056 18.15868,39.32077 35.00958,55.88874 l 6.88495,6.76935 -3.31378,9.92053 c -6.92718,20.73806 -9.34705,39.10623 -7.32942,55.63429 1.39187,11.40187 1.38097,11.44939 -7.44742,32.46875 -14.529,34.59182 -19.03421,57.31252 -15.07121,76.00714 1.77955,8.39467 4.61391,14.37414 10.77936,22.74053 4.49466,6.09917 4.89497,7.08781 4.53222,11.19318 -0.38939,4.40679 -6.35768,18.29993 -21.04834,48.99689 -3.55339,7.425 -10.60232,22.275 -15.66428,33 -5.06197,10.725 -9.55476,19.95 -9.98399,20.5 -1.69727,2.17486 -3.26622,11.96167 -2.69322,16.79978 1.90109,16.05174 15.79727,28.34825 43.0396,38.08503 5.41747,1.93628 10.08483,3.75538 10.3719,4.04245 0.28707,0.28707 -1.1349,2.54391 -3.15993,5.01519 -7.94546,9.69639 -13.00278,26.84132 -10.88946,36.91662 1.56374,7.45521 5.8059,16.09138 9.93002,20.21549 l 3.42544,3.42544 h 41.34422 c 32.98347,0 41.56532,0.26641 42.43756,1.3174 2.29864,2.76968 5.16237,14.56891 5.7479,23.6826 0.71978,11.20345 -1.67575,24.86035 -6.16611,35.15289 -2.85287,6.53918 -13.02383,22.85045 -14.24374,22.84281 -0.37757,-0.002 -0.75068,-5.28986 -0.82913,-11.75 -0.17676,-14.55696 -2.4534,-23.77043 -9.38461,-37.97906 -3.68045,-7.54474 -5.58063,-10.37922 -7.23238,-10.78849 C 396.50817,811.48202 389.65,811.36203 382.5,811.5207 l -13,0.28849 0.26331,4 c 0.14482,2.2 0.35011,9.175 0.4562,15.5 0.2723,16.23403 -3.28492,28.16727 -13.7123,46 -15.69913,26.84839 -26.46637,68.34006 -26.46937,102 -0.002,18.708 3.93264,43.59841 8.04973,50.92661 0.48618,0.8654 3.82588,8.0984 7.42155,16.0734 15.79607,35.0348 32.345,58.9723 50.92943,73.6677 7.71251,6.0986 12.46117,7.9216 14.0285,5.3856 0.32179,-0.5207 -1.67174,-5.3256 -4.43007,-10.6776 -2.75833,-5.352 -4.79506,-9.951 -4.52606,-10.22 0.26899,-0.2689 0.63965,-0.3015 0.82369,-0.072 0.18403,0.2292 6.28395,8.618 13.55537,18.6419 7.27142,10.0239 13.63655,18.4822 14.14473,18.7963 0.50817,0.314 1.83326,0.084 2.94462,-0.5104 1.69406,-0.9067 2.02129,-2.086 2.02448,-7.2963 0.005,-7.5996 2.19204,-21.1392 4.71977,-29.2148 l 1.87806,-6 1.28167,12 c 1.60932,15.0676 1.73626,15.5 4.55009,15.5 1.91143,0 2.68005,-1.0528 4.56308,-6.25 3.28012,-9.0533 9.47417,-21.0501 15.70746,-30.4226 5.66158,-8.513 22.13635,-27.5512 26.05439,-30.1084 1.98181,-1.2935 1.75401,-0.4527 -1.8604,6.8667 -4.23225,8.5706 -4.33409,10.9913 -0.49417,11.7466 1.42616,0.2805 6.90043,-3.4838 11.8215,-8.1289 0.70117,-0.6619 5.77483,-5.0443 11.2748,-9.7387 5.49997,-4.6944 16.29994,-13.9413 23.99994,-20.5486 7.7,-6.6073 20.51879,-16.9414 28.48619,-22.9647 16.82248,-12.7176 32.70615,-28.07711 38.98807,-37.70141 2.42321,-3.7125 4.77031,-6.75 5.21579,-6.75 0.44547,0 0.80995,1.5878 0.80995,3.5284 0,1.9407 0.69626,10.1532 1.54724,18.25 l 1.54724,14.72161 -2.29724,1.7496 c -1.26348,0.9624 -2.80359,2.1651 -3.42246,2.6729 -0.70083,0.575 -1.4014,7.5526 -1.85749,18.5004 l -0.73227,17.5767 h -6.27007 c -3.8161,0 -6.6614,0.4892 -7.26997,1.25 -1.56907,1.9615 -27.24584,92.5363 -27.23777,96.0812 0.004,1.7428 -0.51975,8.9733 -1.16381,16.0677 l -1.17103,12.8988 -4.89186,7.1012 c -2.69052,3.9056 -6.44181,9.2877 -8.33619,11.9603 -3.67121,5.1793 -4.54633,10.4813 -2.06928,12.5371 0.9649,0.8008 8.34723,1.061 24.75,0.8724 l 23.37496,-0.2687 0.28877,-9.9618 c 0.2284,-7.8793 0.6465,-10.2846 2,-11.5061 6.19937,-5.5949 42.58428,-34.0321 43.54342,-34.0321 0.64941,0 14.22492,13.05 30.16781,29 15.94289,15.95 29.72933,29 30.63655,29 0.90721,0 1.93038,-0.732 2.27371,-1.6267 z M 362.66667,772.64252 c -0.82303,-0.82302 -0.89485,-16.33333 -0.0756,-16.33333 0.32507,0 2.46257,1.60278 4.75,3.56173 4.2862,3.67071 18.77366,11.43827 21.33377,11.43827 0.79377,0 1.16511,0.45 0.82519,1 -0.68525,1.10876 -25.74659,1.42008 -26.83333,0.33333 z m 114.53423,-1.44084 c -11.54397,-3.65644 -21.888,-10.91944 -40.38621,-28.35696 -14.27166,-13.45331 -33.83798,-21.91288 -56.87808,-24.59143 -5.69079,-0.66159 -13.62957,-0.9254 -17.64175,-0.58625 -4.42971,0.37445 -7.29486,0.23898 -7.29486,-0.34492 0,-1.29766 -5.13713,-3.86929 -11.37818,-5.69589 -8.31106,-2.43245 -23.22249,-10.34251 -27.99435,-14.85015 -5.81464,-5.49268 -7.98572,-9.82173 -8.00763,-15.96689 -0.0179,-5.02777 2.49922,-10.86163 32.27794,-74.8092 C 342.154,601.15493 344,597.04854 344,596.87467 c 0,-0.4417 10.44959,-22.75013 14.197,-30.30862 1.7024,-3.43373 3.31067,-8.48491 3.57395,-11.22484 0.45887,-4.77558 0.32014,-5.1172 -3.35296,-8.25685 -7.73909,-6.61514 -11.39899,-10.99115 -14.55614,-17.40423 -2.65432,-5.39168 -3.30925,-8.06405 -3.67252,-14.98528 -0.69274,-13.19845 2.36786,-25.31134 11.94356,-47.26877 2.78638,-6.38929 6.90725,-16.11689 9.15749,-21.61689 l 4.09133,-10 0.66738,-25 c 0.75821,-28.40242 2.09654,-36.94108 7.52801,-48.02949 7.44786,-15.20486 32.20783,-37.22822 53.9229,-47.96304 19.40411,-9.5924 35.20719,-13.50747 54.5225,-13.50747 22.4719,0 35.41498,4.30462 45.41277,15.10343 6.33216,6.83949 9.88675,13.19604 12.07306,21.58987 2.64105,10.13966 1.50854,22.57782 -2.81696,30.93821 -3.00652,5.81104 -8.74692,22.13534 -10.20682,29.0257 -1.9918,9.40081 -1.84307,15.97136 0.53588,23.6735 3.18115,10.29936 7.55313,14.88502 23.04311,24.16929 33.54611,20.10663 46.34152,30.96461 53.02952,45 3.08767,6.47977 6.93813,20.89957 9.95318,37.27424 7.36271,39.98664 3.64044,87.35339 -9.68358,123.22576 -18.64897,50.20878 -56.54344,94.57297 -99.84247,116.88857 -11.4179,5.8846 -15.68641,6.37178 -26.31929,3.00392 z m -83.04182,-61.63014 c 6.61846,-3.52472 10.90381,-9.85429 11.55325,-17.06445 0.42977,-4.7714 -0.002,-7.03117 -2.65277,-13.8974 -2.27293,-5.8866 -3.76814,-8.39062 -5.3007,-8.87703 -2.93594,-0.93184 -6.00271,2.7872 -4.84965,5.88112 1.63328,4.38247 2.1557,11.39463 1.06411,14.28315 -1.53371,4.05847 -5.69845,8.16644 -9.577,9.44648 -2.80312,0.92511 -4.0876,0.7082 -8.9343,-1.50873 -11.7085,-5.35558 -23.84076,-5.89173 -32.96202,-1.45666 -3.90822,1.90031 -5.06728,3.0129 -5.30814,5.09533 -0.36803,3.18194 -0.75721,3.03782 15.80814,5.85398 6.875,1.16878 16.325,2.90946 21,3.86818 9.99276,2.04927 13.84432,1.739 20.15908,-1.62397 z m 22.7167,-134.86741 c 17.41563,-3.90294 16.51664,-3.28972 15.81638,-10.78864 -0.65484,-7.01249 0.84314,-10.6063 4.42093,-10.6063 1.09982,0 4.15696,2.25 6.79363,5 5.30499,5.533 6.87673,6.00243 9.68829,2.89359 3.53184,-3.90527 10.52862,-6.44702 26.0355,-9.45803 2.56758,-0.49855 3.69437,-3.92104 1.80672,-5.48766 -0.76777,-0.63719 -15.36787,-2.32169 -33.64677,-3.88202 l -32.29046,-2.7564 4.95357,-2.29158 c 3.75208,-1.73576 7.82165,-2.49088 16.77833,-3.11323 12.58787,-0.87468 13.7681,-1.17597 13.7681,-3.51471 0,-4.52212 -32.28282,-9.71515 -46.27404,-7.44367 -10.33538,1.67796 -17.48094,4.67922 -19.24019,8.08122 -2.54555,4.92255 -1.93332,10.16945 1.57936,13.5354 2.8113,2.69386 3.76364,2.96629 11.5,3.28971 8.23291,0.34417 8.43487,0.41238 8.43487,2.84879 0,1.49389 1.22623,3.64164 3.05394,5.34898 2.76507,2.58296 3.02519,3.34986 2.75,8.10784 l -0.30394,5.25504 -4.42666,1.07334 c -4.49297,1.08941 -5.71421,2.40092 -4.69905,5.04638 0.71035,1.85115 -0.16668,1.92507 13.50149,-1.13805 z m -44.44877,-43.91794 c 9.95838,-2.59383 19.019,-8.30875 32.97592,-20.79931 3.79662,-3.39773 7.84662,-6.57293 9,-7.05601 1.15339,-0.48307 10.64707,-1.09935 21.09707,-1.36951 19.90785,-0.51467 32.47233,0.67058 49.77082,4.69504 7.61933,1.77263 7.81916,1.76985 10.25,-0.14225 3.95656,-3.11222 3.08044,-5.02754 -5.09192,-11.13161 -14.76881,-11.03109 -27.91531,-16.87884 -46.62661,-20.7402 -14.03681,-2.89671 -31.90825,-2.33056 -46.08029,1.45977 -21.3792,5.71789 -46.69615,22.64712 -49.6208,33.181 -2.09529,7.54672 -1.01006,12.74946 3.71242,17.79786 5.27807,5.64234 10.62427,6.70705 20.61339,4.10522 z m 309.49514,148.37648 c -9.17792,-18.23584 -16.41235,-41.81258 -20.05346,-65.35348 -2.29337,-14.82728 -3.55231,-48.97545 -2.41872,-65.60664 l 0.71995,-10.56265 13.97061,-16.41536 c 24.98168,-29.35326 36.701,-40.07416 51.39162,-47.01335 9.79995,-4.62906 14.80566,-5.84578 24.18083,-5.87755 24.98245,-0.0847 43.29657,24.4736 43.23477,57.97555 -0.0337,18.28807 -3.68575,31.89181 -14.47741,53.92831 -13.96013,28.50649 -23.42844,43.11054 -36.51098,56.31503 -7.62013,7.69116 -11.05002,10.37662 -16.2844,12.75 -9.40187,4.26301 -17.40729,4.20884 -26.93391,-0.18227 -10.31576,-4.75484 -10.13396,-5.05866 -10.75704,17.97743 -0.28379,10.49224 -0.81785,19.37868 -1.18681,19.74763 -0.36895,0.36896 -2.56272,-3.08824 -4.87505,-7.68265 z m 26.14062,-70.33978 c 7.95495,-8.10403 9.28262,-10.47506 7.90076,-14.10963 -0.82519,-2.17041 -0.62256,-3.59802 1.00091,-7.0518 C 718.28,584.86272 719,581.27982 719,577.53198 c 0,-8.29567 -2.96207,-13.56023 -10.07037,-17.89835 -9.37836,-5.7235 -11.42539,-2.72707 -6.35191,9.29787 1.82803,4.33273 3.34588,8.71659 3.37299,9.7419 0.0271,1.02532 -2.20071,4.46142 -4.95071,7.63579 l -5,5.77157 v 10.41422 c 0,15.29987 2.14917,16.42729 12.06277,6.32791 z m 48.19846,-11.34872 c 10.95474,-11.48491 19.40892,-27.46497 24.42063,-46.15979 3.22085,-12.01449 3.74612,-32.21544 1.06062,-40.78961 -3.98536,-12.72432 -10.44057,-20.35279 -20.66313,-24.41871 -4.59875,-1.82911 -7.51266,-2.21386 -16.57935,-2.18913 -9.96964,0.0272 -11.49498,0.28436 -16.28435,2.74539 -18.63439,9.57533 -25.80253,35.762 -16.59148,60.61207 4.44305,11.98671 8.95169,13.19799 10.89277,2.92643 1.20595,-6.38146 3.05436,-7.17131 9.31176,-3.97902 7.48346,3.81778 10.77018,10.54622 9.8905,20.24744 -0.94005,10.36703 -7.15182,19.25959 -16.3437,23.39707 -5.32878,2.39861 -7.16291,5.38662 -5.84851,9.52792 0.48644,1.53263 1.55638,1.91496 5.3589,1.91496 16.17284,0 28.95114,-11.53263 32.13238,-29 4.17475,-22.92255 -9.1403,-43.95594 -27.84773,-43.99023 l -5.32945,-0.01 0.64407,-3.25 c 3.09091,-15.59667 10.98533,-23.74977 22.99644,-23.74977 9.21972,0 15.96583,5.90723 20.69599,18.12245 7.26057,18.74977 -0.38473,53.26798 -16.30272,73.60608 -4.68639,5.98772 -5.64267,8.17033 -4.2082,9.6048 1.48298,1.48299 3.28238,0.40091 8.59456,-5.16835 z M 652.5,276.71021 c 25.40256,-7.21509 60.3979,-14.81985 82.5,-17.92789 17.92355,-2.52045 56.45766,-3.08165 73,-1.06316 16.35325,1.99541 33.99279,6.33611 47.47642,11.68289 11.18659,4.43591 18.78261,8.36045 14.52358,7.50371 -4.97593,-1.00095 -29.77205,-4.59507 -41.5,-6.0153 -32.95232,-3.99045 -81.37471,-4.43617 -117,-1.07698 -15.26214,1.4391 -46.42204,5.58446 -56.867,7.56531 -6.96516,1.32092 -7.99787,0.99722 -2.133,-0.66858 z m 141.46156,-65.08709 c -29.12054,-36.77621 -67.8506,-64.90434 -108.70566,-78.94866 -6.18425,-2.1259 -11.24675,-4.15995 -11.25,-4.52011 -0.006,-0.70521 4.66942,-0.31662 14.9941,1.2461 27.01261,4.08857 58.06496,20.80545 79.99236,43.06351 10.2567,10.41136 21.40094,25.08536 27.33934,35.99861 4.16497,7.65416 7.00709,13.84662 6.35511,13.84662 -0.14503,0 -4.0714,-4.80873 -8.72525,-10.68607 z m 212.23264,986.93608 c 7.4138,-6.4625 21.5256,-18.725 31.3594,-27.25 9.8338,-8.525 25.1198,-21.8 33.9689,-29.5 8.8491,-7.7 18.6516,-16.2033 21.7834,-18.8962 5.5893,-4.806 7.125,-8.1175 4.2722,-9.2122 -0.782,-0.3001 -2.4089,-0.017 -3.6153,0.6283 -1.9094,1.0219 -60.9057,41.4518 -87.9628,60.2805 -5.225,3.6361 -14.9,10.3097 -21.5,14.8304 -18.82191,12.8921 -22.5,15.7911 -22.5,17.7341 0,0.991 0.3,2.1018 0.66667,2.4684 0.36666,0.3667 7.27741,0.6667 15.35721,0.6667 h 14.69054 z m 3.3058,-47.1615 c 43.6371,-43.5492 58,-58.4624 58,-60.2221 0,-3.6287 -2.7133,-3.3239 -7.5144,0.844 -2.4008,2.0843 -11.8443,10.3146 -20.9856,18.2896 -9.1413,7.975 -18.4374,16.075 -20.6581,18 -2.2207,1.925 -6.8886,5.975 -10.373,9 -3.4845,3.025 -11.9905,10.4087 -18.90219,16.4081 C 934.50045,1201.0818 932,1203.3603 932,1205.72 c 0,1.2407 0.3,2.5559 0.66667,2.9225 0.36666,0.3667 4.75416,0.6603 9.75,0.6525 l 9.08333,-0.014 z m -524.9627,54.794 c 0.92428,-2.9122 -1.25907,-4.7951 -12.0373,-10.3812 -89.95714,-46.6224 -160.09049,-135.0007 -192.86898,-243.04335 -13.82704,-45.57593 -20.06294,-88.57968 -20.07754,-138.45796 -0.008,-27.6696 0.85959,-40.35905 4.54717,-66.5 9.12043,-64.65388 32.35371,-125.56731 67.94226,-178.13218 C 335.86931,564.02535 339,558.87478 339,558.2313 c 0,-0.64348 -2.00019,-2.9306 -4.44486,-5.08249 -4.57307,-4.02538 -9.67577,-13.22666 -11.00235,-19.83962 -1.26625,-6.31229 -1.64854,-7 -3.8912,-7 -2.8184,0 -25.12929,21.1015 -38.50299,36.41589 -47.10897,53.94508 -76.43161,117.36508 -89.04249,192.58411 -4.02475,24.00605 -4.99884,34.57809 -5.75868,62.5 -2.60689,95.79584 24.85066,196.58801 76.95795,282.50001 21.96287,36.2113 44.54411,64.982 74.36633,94.75 l 13.27415,13.25 h 66.45468 66.45468 z m 412.74477,-0.2992 c 2.90898,-1.9741 27.65331,-22.5699 54.21793,-45.1281 26.91679,-22.8573 58.5033,-49.1233 65.9913,-54.8755 33.0743,-25.4076 30.499,-23.6034 70.0108,-49.0482 14.2989,-9.2082 26.3285,-17.2572 26.7326,-17.8868 2.6413,-4.1154 -2.3598,-9.9069 -32.4265,-37.5514 -3.4957,-3.21421 -5.4814,-5.78141 -5.1466,-6.65391 0.3747,-0.9764 4.3167,2.1729 12.6044,10.06991 6.6325,6.3199 12.6059,11.4907 13.2741,11.4907 2.5325,0 1.2416,3.3832 42.1623,-110.50001 3.5573,-9.9 9.1224,-28.35 12.3669,-41 3.2445,-12.65 12.2016,-45.93207 19.9047,-73.96016 8.1073,-29.49875 13.6335,-51.33229 13.1221,-51.84378 -0.486,-0.48599 -1.719,-0.72307 -2.7399,-0.52685 -1.9083,0.36677 -2.2647,1.26213 -18.2434,45.83079 -3.4508,9.625 -9.8746,27.4 -14.2753,39.5 -4.4007,12.1 -9.3743,25.825 -11.0526,30.5 -2.041,5.68546 -7.5929,15.95024 -16.7669,31 -7.5436,12.375 -24.3998,40.05 -37.4582,61.5 -13.0585,21.45 -25.164,40.8749 -26.9012,43.1664 -1.7372,2.2915 -15.0836,18.67841 -29.6586,36.41541 -34.0832,41.4773 -46.38514,56.4761 -50.32275,61.3546 -1.74749,2.1651 -8.58684,10.4901 -15.19856,18.5 -6.61171,8.01 -15.65558,19.064 -20.09747,24.5646 -8.93313,11.0621 -13.82938,15.8019 -8.26313,7.999 3.79978,-5.3266 10.40109,-14.8132 17.83015,-25.6233 2.50347,-3.6428 8.82676,-12.7704 14.05176,-20.2836 19.20677,-27.6178 34.9339,-50.2097 38.0045,-54.5931 1.7337,-2.475 8.3203,-11.925 14.637,-21 6.3167,-9.075 12.3564,-17.42901 13.4217,-18.56451 2.5933,-2.7641 2.5726,-6.4355 -0.036,-6.4355 -1.0852,0 -32.4727,18.28591 -69.75005,40.63521 -37.27738,22.3494 -68.22705,40.8654 -68.77705,41.1467 -3.57547,1.8288 4.37242,-4.1606 25.63001,-19.3144 21.55964,-15.3691 30.77026,-21.0283 79.86999,-49.0741 30.525,-17.43601 56.5125,-32.61081 57.75,-33.72191 4.4794,-4.0218 5.745,-2.2032 -40.0475,-57.54391 -8.3614,-10.10483 -19.929,-25.40483 -25.70582,-34 -12.82929,-19.08835 -42.52769,-64.4301 -50.01558,-76.36082 -4.65695,-7.42009 -5.84891,-8.69817 -7.92726,-8.5 -1.97346,0.18816 -2.86743,1.32388 -4.6261,5.87709 -2.40877,6.23635 -6.00436,11.95616 -17.82522,28.35614 -4.36075,6.05 -9.35688,13.025 -11.10252,15.5 -1.74564,2.475 -6.92127,9.675 -11.5014,16 -26.84178,37.06752 -35.69284,49.30892 -47.35931,65.5 -7.13343,9.9 -18.408,25.53929 -25.05459,34.754 -6.64658,9.2147 -14.1097,19.6013 -16.5847,23.0814 -4.23592,5.9562 -33.64452,46.67501 -65.61211,90.84571 -16.10485,22.2526 -16.54237,22.9509 -15.4683,24.6888 0.42903,0.6942 34.98963,11.0199 76.80135,22.9461 41.81171,11.9262 76.10196,22.134 76.20055,22.684 0.20566,1.1473 -6.68402,9.8141 -29.76254,37.4395 -8.98758,10.7583 -16.57543,20.1287 -16.86188,20.8232 -0.28645,0.6945 0.0346,1.932 0.7135,2.75 1.04427,1.2583 6.04404,1.4873 32.47233,1.4873 h 31.23801 z m -588.50847,-2.6449 c 0.18837,-0.9789 -4.84296,-5.8108 -13.48657,-12.9519 -12.17611,-10.0595 -41.55491,-38.3774 -51.34042,-49.4865 -45.06345,-51.1587 -80.85253,-113.8458 -101.90859,-178.50001 -5.07377,-15.57939 -5.98632,-18.69799 -9.99187,-34.14663 -13.14,-50.67843 -18.44538,-93.69753 -18.48083,-149.85337 -0.0254,-40.26954 1.97888,-66.04055 7.99051,-102.74099 10.89883,-66.5363 30.88433,-127.92158 60.91379,-187.09611 29.02551,-57.19623 62.67128,-104.07534 106.63818,-148.58043 16.92385,-17.13102 19.40789,-20.58247 14.81336,-20.58247 -2.02815,0 -14.1936,8.95004 -28.42116,20.90927 -13.43961,11.2969 -15.75193,13.40272 -30.84527,28.09073 C 179.1165,432.08736 130.17863,511.2524 99.926667,602.43061 72.103869,686.28742 62.440408,774.74335 71.546107,862.21632 82.411502,966.59359 120.04371,1062.7407 180.90528,1141.6196 c 15.0279,19.4767 23.43174,29.087 41.0584,46.9528 l 16.53886,16.7633 34.9853,-0.2633 c 30.78064,-0.2316 35.02141,-0.4509 35.28576,-1.8248 z m 771.1736,-262.68841 c 39.2915,-39.87665 63.7047,-92.7482 68.263,-147.83715 3.678,-44.45013 -12.8227,-85.79973 -43.4953,-108.99616 -7.1873,-5.43547 -21.9633,-12.81263 -29.2149,-14.586 -2.75,-0.67251 -5.3426,-1.49962 -5.7613,-1.83802 -0.4187,-0.3384 1.8313,-1.65683 5,-2.92984 58.162,-23.36617 99.7916,-79.75066 107.3243,-145.36343 1.2421,-10.81923 0.7666,-34.49305 -0.8354,-41.59188 -1.0103,-4.47672 -4.5146,-5.96349 -6.7005,-2.84276 -0.8399,1.19914 -1.5271,2.87458 -1.5271,3.72321 0,2.81645 -4.5112,10.03241 -9.3576,14.96789 -11.9513,12.17121 -34.448,18.97916 -69.6424,21.07518 -58.8493,3.50482 -78.6259,1.93175 -99.20677,-7.89109 -4.57565,-2.18386 -10.72638,-5.88716 -13.66829,-8.22955 -9.13211,-7.27109 -8.58518,-10.44024 -8.88364,51.47647 -0.2267,47.02957 -0.0725,53.74069 1.24673,54.24691 0.99586,0.38215 4.29913,-2.28706 9.75871,-7.88553 19.26796,-19.75814 43.39126,-26.93168 85.25326,-25.3518 9.9,0.37363 19.575,1.02826 21.5,1.45473 3.16,0.70008 3.4854,1.08765 3.3496,3.98934 -0.3231,6.90338 -17.4293,25.19685 -34.8496,37.26822 -11.5646,8.01366 -29.4621,17.37292 -40.626,21.24473 -21.82153,7.56806 -32.72289,12.05259 -53.874,22.16231 -13.475,6.44073 -27.7625,13.21934 -31.75,15.06359 l -7.25,3.35316 v 4.46331 c 0,6.61443 2.97319,52.90131 3.49139,54.35416 1.12538,3.15522 9.41828,-0.36846 18.50861,-7.86439 13.91862,-11.47736 34.71398,-16.18865 61.5797,-13.95119 19.5717,1.62999 28.7942,3.58924 36.4203,7.73724 18.0452,9.81512 31.7296,26.675 36.4924,44.96042 2.6183,10.05236 2.5948,10.09676 -5.7424,10.86755 -14.2112,1.31385 -54.8469,1.07404 -62.75,-0.37032 -10.3816,-1.89732 -17.59453,-4.7682 -22.01604,-8.76277 C 983.82194,760.20528 984,759.19208 984,806.41618 c 0,23.04115 0.1882,41.89301 0.41821,41.89301 0.23002,0 1.08671,0.25653 1.90376,0.57006 0.98478,0.37789 2.54546,-0.97047 4.62983,-4 l 3.14428,-4.57006 h 41.56322 41.5633 l -0.6996,3.75 c -1.2223,6.55182 -6.322,18.51254 -11.9643,28.06099 -5.34,9.03669 -16.1779,24.70229 -19.848,28.68901 -3.5645,3.87205 -7.7572,10.93652 -7.2598,12.23252 0.2766,0.72098 7.1015,9.1761 15.1663,18.78917 10.1035,12.04311 15.2923,17.47831 16.6859,17.47831 1.219,0 5.4476,-3.47609 10.6441,-8.75 z"
       id="path1" />
  </g>
</svg>
