<?xml version="1.0" encoding="UTF-8" standalone="no"?>
<!-- Created with Inkscape (http://www.inkscape.org/) -->

<svg
   version="1.1"
   id="svg1"
   width="1309"
   height="1279"
   viewBox="0 0 1309 1279"
   sodipodi:docname="YEYE_favico_dark.svg"
   inkscape:version="1.4.2 (f4327f4, 2025-05-13)"
   xmlns:inkscape="http://www.inkscape.org/namespaces/inkscape"
   xmlns:sodipodi="http://sodipodi.sourceforge.net/DTD/sodipodi-0.dtd"
   xmlns="http://www.w3.org/2000/svg"
   xmlns:svg="http://www.w3.org/2000/svg">
  <defs
     id="defs1" />
  <sodipodi:namedview
     id="namedview1"
     pagecolor="#ffffff"
     bordercolor="#000000"
     borderopacity="0.25"
     inkscape:showpageshadow="2"
     inkscape:pageopacity="0.0"
     inkscape:pagecheckerboard="0"
     inkscape:deskcolor="#d1d1d1"
     inkscape:zoom="0.60437842"
     inkscape:cx="737.12096"
     inkscape:cy="637.84541"
     inkscape:window-width="1920"
     inkscape:window-height="991"
     inkscape:window-x="-9"
     inkscape:window-y="-9"
     inkscape:window-maximized="1"
     inkscape:current-layer="g1" />
  <g
     inkscape:groupmode="layer"
     inkscape:label="Image"
     id="g1">
    <path
       style="fill:#ffffff"
       d="m 1051,1207.8355 c -11.275,-0.4735 -21.0625,-1.0661 -21.75,-1.3168 -2.0554,-0.7497 -1.4153,-4.3606 1,-5.6418 1.2375,-0.6565 5.625,-3.6747 9.75,-6.7071 38.5362,-28.3295 73.7969,-69.3436 111.4797,-129.6698 4.8098,-7.7 9.7554,-15.575 10.9901,-17.5 1.2348,-1.925 6.8482,-11.0375 12.4743,-20.25 9.3836,-15.3654 10.4651,-16.75 13.0835,-16.75 1.5699,0 3.1189,0.4281 3.4423,0.9513 1.1158,1.8053 -8.0504,27.634 -18.4049,51.862 -15.3944,36.0203 -35.3332,71.4977 -55.4636,98.6867 -5.35,7.226 -15.5589,20.2672 -18.1014,23.1234 -0.55,0.6178 -5.275,5.9514 -10.5,11.8524 -9.1398,10.3221 -12.1792,12.6999 -15.8151,12.3724 -0.9267,-0.083 -10.9099,-0.5391 -22.1849,-1.0127 z M 672.5,1178 c -15.94289,-15.95 -29.5184,-29 -30.16781,-29 -0.95914,0 -37.34405,28.4372 -43.54342,34.0321 -1.3535,1.2215 -1.7716,3.6268 -2,11.5061 L 596.5,1204.5 l -23.37496,0.2687 c -16.40277,0.1886 -23.7851,-0.072 -24.75,-0.8724 -2.47705,-2.0558 -1.60193,-7.3578 2.06928,-12.5371 1.89438,-2.6726 5.64567,-8.0547 8.33619,-11.9603 l 4.89186,-7.1012 1.17103,-12.8988 c 0.64406,-7.0944 1.16778,-14.3249 1.16381,-16.0677 -0.008,-3.5449 25.6687,-94.1197 27.23777,-96.0812 0.60857,-0.7608 3.45387,-1.25 7.26997,-1.25 h 6.27007 l 0.73227,-17.5771 c 0.45609,-10.9478 1.15666,-17.9254 1.85749,-18.5004 0.61887,-0.5078 2.15898,-1.7105 3.42246,-2.6729 l 2.29724,-1.7496 -1.54724,-14.72156 C 612.69626,982.68158 612,974.46908 612,972.52844 612,970.5878 611.63552,969 611.19005,969 c -0.44548,0 -2.79258,3.0375 -5.21579,6.75 -6.28192,9.62429 -22.16559,24.9838 -38.98807,37.7014 -7.9674,6.0233 -20.78619,16.3574 -28.48619,22.9647 -7.7,6.6073 -18.49997,15.8542 -23.99994,20.5486 -5.49997,4.6944 -10.57363,9.0768 -11.2748,9.7387 -4.92107,4.6451 -10.39534,8.4094 -11.8215,8.1289 -3.83992,-0.7553 -3.73808,-3.176 0.49417,-11.7466 3.61441,-7.3194 3.84221,-8.1602 1.8604,-6.8667 -3.91804,2.5572 -20.39281,21.5954 -26.05439,30.1084 -6.23329,9.3725 -12.42734,21.3693 -15.70746,30.4226 -1.88303,5.1972 -2.65165,6.25 -4.56308,6.25 -2.81383,0 -2.94077,-0.4324 -4.55009,-15.5 l -1.28167,-12 -1.87806,6 c -2.52773,8.0756 -4.71512,21.6152 -4.71977,29.2148 -0.003,5.2103 -0.33042,6.3896 -2.02448,7.2963 -1.11136,0.5947 -2.43645,0.8244 -2.94462,0.5104 -0.50818,-0.3141 -6.87331,-8.7724 -14.14473,-18.7963 -7.27142,-10.0239 -13.37134,-18.4127 -13.55537,-18.6419 -0.18404,-0.2291 -0.5547,-0.1965 -0.82369,0.072 -0.269,0.269 1.76773,4.868 4.52606,10.22 2.75833,5.352 4.75186,10.1569 4.43007,10.6776 -1.56733,2.536 -6.31599,0.713 -14.0285,-5.3856 -18.58443,-14.6954 -35.13336,-38.6329 -50.92943,-73.6677 -3.59567,-7.975 -6.93537,-15.208 -7.42155,-16.0734 -4.11709,-7.3282 -8.05139,-32.21861 -8.04973,-50.9266 0.003,-33.65994 10.77024,-75.15161 26.46937,-102 10.42738,-17.83273 13.9846,-29.76597 13.7123,-46 -0.10609,-6.325 -0.31138,-13.3 -0.4562,-15.5 l -0.26331,-4 13,-0.28849 c 7.15,-0.15867 14.00817,-0.0387 15.24038,0.26664 1.65175,0.40927 3.55193,3.24375 7.23238,10.78849 6.93121,14.20863 9.20785,23.4221 9.38461,37.97906 0.0784,6.46014 0.45156,11.74764 0.82913,11.75 1.21991,0.008 11.39087,-16.30363 14.24374,-22.84281 4.49036,-10.29254 6.88589,-23.94944 6.16611,-35.15289 -0.58553,-9.11369 -3.44926,-20.91292 -5.7479,-23.6826 C 428.97621,786.26641 420.39436,786 387.41089,786 h -41.34422 l -3.42544,-3.42544 c -4.12412,-4.12411 -8.36628,-12.76028 -9.93002,-20.21549 -2.11332,-10.0753 2.944,-27.22023 10.88946,-36.91662 2.02503,-2.47128 3.447,-4.72812 3.15993,-5.01519 -0.28707,-0.28707 -4.95443,-2.10617 -10.3719,-4.04245 -27.24233,-9.73678 -41.13851,-22.03329 -43.0396,-38.08503 -0.573,-4.83811 0.99595,-14.62492 2.69322,-16.79978 0.42923,-0.55 4.92202,-9.775 9.98399,-20.5 5.06196,-10.725 12.11089,-25.575 15.66428,-33 14.69066,-30.69696 20.65895,-44.5901 21.04834,-48.99689 0.36275,-4.10537 -0.0376,-5.09401 -4.53222,-11.19318 -6.16545,-8.36639 -8.99981,-14.34586 -10.77936,-22.74053 -3.963,-18.69462 0.54221,-41.41532 15.07121,-76.00714 8.82839,-21.01936 8.83929,-21.06688 7.44742,-32.46875 -2.01763,-16.52806 0.40224,-34.89623 7.32942,-55.63429 l 3.31378,-9.92053 -6.88495,-6.76935 C 336.85333,327.70137 325.20187,309.10116 318.69465,288.3806 313.0838,270.51427 312.495,266.05371 312.57238,242 c 0.0657,-20.43301 0.32001,-23.67812 2.76806,-35.32436 9.44193,-44.9187 33.52583,-90.50974 65.3505,-123.709132 5.05502,-5.273378 10.78869,-10.448398 12.74148,-11.500046 3.27581,-1.764142 3.67612,-1.786493 5.17375,-0.288867 1.49762,1.497627 1.05876,2.617432 -5.67207,14.472813 -31.45746,55.407752 -43.22349,96.593812 -37.72654,132.058742 L 356.41511,225.5 357.5976,210 c 3.75394,-49.20637 17.9656,-87.36433 48.31277,-129.718575 2.05869,-2.873223 6.7076,-3.060445 7.58204,-0.305346 0.34495,1.086843 0.0933,6.568458 -0.55925,12.181366 -1.82714,15.716565 -0.74142,39.067995 2.36948,50.962155 4.51998,17.28156 14.99202,35.26921 25.2552,43.3804 2.08776,1.65 4.38562,3.58894 5.10637,4.30875 2.04361,2.04098 16.75558,8.534 28.41145,12.5392 26.01518,8.93935 53.96227,12.94122 109.42434,15.66895 32.83338,1.61481 55.20206,4.33331 78,9.47945 l 3,0.67719 -2.93723,-1.62461 C 651.16596,221.79838 614.93305,212.69203 592,210.06584 c -5.225,-0.59834 -23.47504,-1.74789 -40.55565,-2.55456 -41.5063,-1.96021 -58.99154,-4.48907 -76.46469,-11.05897 -18.31778,-6.88748 -37.597,-23.26206 -44.1904,-37.53262 -5.49185,-11.88638 -7.27102,-20.48761 -7.22318,-34.91969 0.0607,-18.29669 3.95992,-34.368111 13.16223,-54.25 2.9807,-6.43991 3.98303,-7.75 5.92938,-7.75 1.28827,0 2.34231,0.354641 2.34231,0.788091 0,21.67089 2.18981,34.608512 7.93649,46.889549 12.51711,26.7499 41.99142,49.48593 77.48672,59.77207 11.0722,3.2086 22.93331,5.47611 52.07679,9.95562 19.68981,3.02643 49.4459,7.68566 99.5,15.57979 6.325,0.99753 23.56769,4.55896 38.3171,7.91429 14.7494,3.35532 27.0494,6.10059 27.33333,6.10059 2.20722,0 -11.18612,-11.78875 -26.99575,-23.76151 C 704.13144,172.7253 672.64571,154.30904 662,150.93088 c -1.375,-0.43632 -6.1,-2.18326 -10.5,-3.8821 -11.03987,-4.26247 -25.60586,-7.8599 -41,-10.12594 -22.0835,-3.25074 -22.17853,-2.4793 -0.37783,3.06734 32.04704,8.15357 60.84278,20.83402 87.44165,38.50569 12.80127,8.50486 14.29039,9.94709 12.73915,12.33795 -1.60682,2.47653 -4.55977,2.11447 -51.39522,-6.30155 C 572.86699,169.07132 556.2832,166.12182 546.5,164.54006 518.32636,159.98492 511.52785,158.20771 499.5,152.25373 478.69893,141.95688 463.05181,122.71583 457.41306,100.5 454.06903,87.325047 455.19801,66.28245 460.10049,50.410071 461.77273,44.995989 462.43278,44 464.34851,44 c 2.22659,0 2.26709,0.206176 2.20982,11.25 -0.0505,9.741473 0.29354,12.212259 2.56578,18.42615 7.06579,19.322815 23.46386,35.14944 43.38549,41.87358 7.33653,2.4763 8.84964,2.64836 18.4904,2.10261 9.80565,-0.55509 95.99242,-13.80528 111.5,-17.1418 30.4892,-6.559876 71.42216,-9.204182 94,-6.072486 13.39615,1.858136 21.08844,3.915062 36.5,9.760146 42.38761,16.07617 86.36616,49.38394 120.84478,91.52348 4.14986,5.07193 7.7231,9.04378 7.94054,8.82634 0.64656,-0.64657 -4.8806,-12.49581 -9.55217,-20.47811 -8.17279,-13.96483 -20.25892,-27.99743 -37.26951,-43.27174 -6.39759,-5.74458 -7.30622,-6.95866 -6.36151,-8.5 1.77517,-2.89627 4.68195,-2.64097 14.06325,1.23519 15.65558,6.46857 35.82546,20.37408 45.83634,31.60046 18.91444,21.211 32.27059,44.42738 41.50671,72.14924 2.52567,7.58068 4.907,13.46818 5.29185,13.08333 0.38484,-0.38485 0.69972,-5.97658 0.69972,-12.42607 0,-10.0525 0.23946,-11.81823 1.67754,-12.37008 2.70071,-1.03636 3.97433,1.3389 6.12866,11.42976 3.4832,16.3152 4.49499,27.99954 3.87978,44.80421 -0.53358,14.57499 -1.37114,20.28152 -4.74886,32.35531 l -1.30353,4.65951 5.99468,6.84049 c 13.94111,15.90811 21.07204,27.14127 26.87822,42.34048 2.81245,7.36233 3.99611,12.33132 5.99401,25.16278 0.4944,3.17519 -1.59475,5.25947 -4.38429,4.3741 -1.08888,-0.34559 -3.19192,-2.69672 -4.67342,-5.22472 C 988.85942,387.90397 979.40575,378 977.78136,378 c -1.08682,0 -1.00557,0.86911 0.85862,9.18462 2.56935,11.46094 2.30251,38.15585 -0.52599,52.6203 -4.57669,23.40442 -11.67768,42.8714 -25.24035,69.19508 -14.60702,28.35063 -35.895,78.59813 -43.84906,103.5 -10.31153,32.28239 -14.26292,55.85291 -14.41715,86 l -0.10743,21 -2.66347,0.30807 c -1.53064,0.17705 -5.35856,-1.04694 -9,-2.87777 -33.8757,-17.03184 -54.52348,-47.01311 -67.7879,-98.4303 -1.70265,-6.6 -5.14976,-21.45 -7.66025,-33 -2.51049,-11.55 -4.70826,-21.14587 -4.88394,-21.32415 -0.17567,-0.17829 -1.07022,2.25853 -1.98787,5.41515 -2.51073,8.63662 -7.08327,19.69855 -13.02692,31.51489 -17.87825,35.54301 -40.20321,59.80091 -60.79082,66.05421 -6.50642,1.97626 -13.12268,2.15881 -23.18423,0.63967 -1.84164,-0.27806 -1.96528,0.2071 -1.70747,6.70023 0.65856,16.58675 5.52209,35.36011 13.21232,51 10.03095,20.40028 13.67738,42.20583 12.6911,75.89249 -1.12873,38.55258 -8.1245,63.2221 -38.17192,134.60751 -9.63677,22.89463 -13.66252,33.20944 -13.15813,33.71384 0.39142,0.39141 51.18756,-41.48793 79.64862,-65.66703 3.59101,-3.05074 8.72011,-7.34681 11.398,-9.54681 2.67789,-2.2 5.36479,-4.46769 5.97088,-5.03931 0.6061,-0.57162 4.927,-4.15933 9.602,-7.97268 47.74502,-38.94516 88.81923,-76.91241 107.05011,-98.95255 C 895.75301,775.64096 900.9676,770 901.63809,770 c 1.56803,0 4.36191,2.78464 4.36191,4.34748 0,0.66254 -4.32946,6.3679 -9.62102,12.67857 -5.29157,6.31067 -13.72907,16.37934 -18.75,22.37482 -25.09597,29.96699 -33.24095,38.96247 -43.24265,47.75804 -9.71255,8.5413 -25.55919,22.42829 -33.90175,29.70935 -13.10755,11.43976 -20.32278,17.55333 -44.48458,37.69236 -33.03832,27.53769 -28.59626,23.82273 -45,37.63415 -7.425,6.25161 -25.67927,21.54248 -40.56504,33.97971 -29.3565,24.52772 -28.6352,23.83742 -46.31613,44.32552 l -12.08177,14 -0.0185,8.0617 c -0.044,19.1472 9.8484,41.0399 29.19071,64.6012 5.88802,7.1724 34.36656,40.7379 53.73812,63.3371 4.71449,5.5 9.13774,10.7305 9.82947,11.6233 1.55218,2.0033 0.58572,4.8767 -1.64028,4.8767 -0.90722,0 -14.69366,-13.05 -30.63655,-29 z m -283,-409 c 0.33992,-0.55 -0.0314,-1 -0.82519,-1 -2.56011,0 -17.04757,-7.76756 -21.33377,-11.43827 -2.28743,-1.95895 -4.42493,-3.56173 -4.75,-3.56173 -0.81922,0 -0.7474,15.51031 0.0756,16.33333 1.08674,1.08675 26.14808,0.77543 26.83333,-0.33333 z m 114.02019,-4.11143 c 16.73182,-8.6233 28.95495,-17.49917 43.87781,-31.86201 30.00012,-28.87431 52.57415,-66.94548 62.01915,-104.59548 10.15846,-40.49404 9.87672,-81.07517 -0.86387,-124.43108 -6.45341,-26.05013 -15.87779,-35.95955 -58.48974,-61.5 -15.48998,-9.28427 -19.86196,-13.86993 -23.04311,-24.16929 -2.37895,-7.70214 -2.52768,-14.27269 -0.53588,-23.6735 1.4599,-6.89036 7.2003,-23.21466 10.20682,-29.0257 6.02796,-11.65095 5.56475,-28.29895 -1.15644,-41.56259 -3.82761,-7.55342 -12.75198,-16.55934 -19.87625,-20.05787 -16.19842,-7.95459 -45.00394,-8.15563 -69.15868,-0.48268 -21.00774,6.67328 -43.92081,21.50985 -60.23981,39.00622 -16.52168,17.71368 -19.1776,26.25071 -20.2111,64.96541 l -0.66738,25 -4.09133,10 c -2.25024,5.5 -6.37111,15.2276 -9.15749,21.61689 -9.5757,21.95743 -12.6363,34.07032 -11.94356,47.26877 0.68438,13.03904 5.40649,21.42951 18.22866,32.38951 3.6731,3.13965 3.81183,3.48127 3.35296,8.25685 -0.26328,2.73993 -1.87155,7.79111 -3.57395,11.22484 -3.74741,7.55849 -14.197,29.86692 -14.197,30.30862 0,0.17387 -1.846,4.28026 -4.10222,9.12532 -29.77872,63.94757 -32.29586,69.78143 -32.27794,74.8092 0.0219,6.14516 2.19299,10.47421 8.00763,15.96689 4.77186,4.50764 19.68329,12.4177 27.99435,14.85015 6.24105,1.8266 11.37818,4.39823 11.37818,5.69589 0,0.5839 2.86515,0.71937 7.29486,0.34492 9.31529,-0.78743 25.56267,1.09708 36.59688,4.24482 4.73454,1.35063 13.24987,4.77091 18.92295,7.60063 8.16163,4.071 12.12762,6.85392 19,13.33223 18.49821,17.43752 28.84224,24.70052 40.38621,28.35696 10.63288,3.36786 14.90139,2.88068 26.31929,-3.00392 z M 374,707.88632 c -4.675,-0.95872 -14.125,-2.6994 -21,-3.86818 -16.56535,-2.81616 -16.17617,-2.67204 -15.80814,-5.85398 0.24086,-2.08243 1.39992,-3.19502 5.30814,-5.09533 9.12126,-4.43507 21.25352,-3.89892 32.96202,1.45666 4.8467,2.21693 6.13118,2.43384 8.9343,1.50873 3.87855,-1.28004 8.04329,-5.38801 9.577,-9.44648 1.09159,-2.88852 0.56917,-9.90068 -1.06411,-14.28315 -1.15306,-3.09392 1.91371,-6.81296 4.84965,-5.88112 1.53256,0.48641 3.02777,2.99043 5.3007,8.87703 2.65119,6.86623 3.08254,9.126 2.65277,13.8974 -0.64944,7.21016 -4.93479,13.53973 -11.55325,17.06445 -6.31476,3.36297 -10.16632,3.67324 -20.15908,1.62397 z m 29.37429,-135.35333 c -1.01516,-2.64546 0.20608,-3.95697 4.69905,-5.04638 l 4.42666,-1.07334 0.30394,-5.25504 c 0.27519,-4.75798 0.0151,-5.52488 -2.75,-8.10784 C 408.22623,551.34305 407,549.1953 407,547.70141 c 0,-2.43641 -0.20196,-2.50462 -8.43487,-2.84879 -7.73636,-0.32342 -8.6887,-0.59585 -11.5,-3.28971 C 384.68092,539.27829 384,537.76775 384,534.76325 c 0,-6.25817 2.22961,-9.33131 8.46173,-11.66305 11.9478,-4.47024 22.91533,-4.84721 42.96911,-1.47688 10.38699,1.74569 15.56916,3.6651 15.56916,5.76664 0,2.33874 -1.18023,2.64003 -13.7681,3.51471 -8.95668,0.62235 -13.02625,1.37747 -16.77833,3.11323 l -4.95357,2.29158 32.29046,2.7564 c 18.2789,1.56033 32.879,3.24483 33.64677,3.88202 1.88765,1.56662 0.76086,4.98911 -1.80672,5.48766 -15.50688,3.01101 -22.50366,5.55276 -26.0355,9.45803 -2.81156,3.10884 -4.3833,2.63941 -9.68829,-2.89359 -2.63667,-2.75 -5.69381,-5 -6.79363,-5 -3.57779,0 -5.07577,3.59381 -4.42093,10.6063 0.70026,7.49892 1.59925,6.8857 -15.81638,10.78864 -13.66817,3.06312 -12.79114,2.9892 -13.50149,1.13805 z M 357.5,527.58264 c -5.88047,-2.6248 -10.50685,-9.41277 -10.49442,-15.39774 0.0174,-8.378 3.68164,-13.5529 16.36241,-23.10815 27.56289,-20.76929 64.35798,-25.64457 98.76775,-13.08656 9.97306,3.63972 18.48861,8.35997 28.29316,15.68316 8.17236,6.10407 9.04848,8.01939 5.09192,11.13161 -2.43084,1.9121 -2.63067,1.91488 -10.25,0.14225 -17.29849,-4.02446 -29.86297,-5.20971 -49.77082,-4.69504 -10.45,0.27016 -19.94368,0.88644 -21.09707,1.36951 -1.15338,0.48308 -5.20338,3.65828 -9,7.05601 -13.95692,12.49056 -23.01754,18.20548 -32.97592,20.79931 -7.09116,1.84701 -10.96432,1.87442 -14.92701,0.10564 z M 687.98401,663.7885 c 0.62308,-23.03609 0.44128,-22.73227 10.75704,-17.97743 9.52662,4.39111 17.53204,4.44528 26.93391,0.18227 12.08795,-5.48094 27.40657,-22.85258 41.22493,-46.74995 7.1165,-12.30722 18.83084,-37.00018 21.13854,-44.55847 12.16419,-39.84076 1.14277,-76.97109 -26.02611,-87.68007 -5.68322,-2.24011 -16.47065,-2.65686 -23.98017,-0.92642 -6.71475,1.5473 -19.77077,8.03748 -26.53215,13.18919 -8.41101,6.40862 -21.04428,19.47753 -37.35947,38.64773 l -13.97061,16.41536 -0.71995,10.56265 c -1.13359,16.63119 0.12535,50.77936 2.41872,65.60664 3.64111,23.5409 10.87554,47.11764 20.05346,65.35348 2.31233,4.59441 4.5061,8.05161 4.87505,7.68265 0.36896,-0.36895 0.90302,-9.25539 1.18681,-19.74763 z M 697.2,610.8 c -0.7797,-0.7797 -1.2,-4.8476 -1.2,-11.61421 V 588.77157 L 701,583 c 2.75,-3.17437 4.97782,-6.61047 4.95071,-7.63579 -0.0271,-1.02531 -1.54496,-5.40917 -3.37299,-9.7419 -5.07348,-12.02494 -3.02645,-15.02137 6.35191,-9.29787 7.1083,4.33812 10.07037,9.60268 10.07037,17.89835 0,3.74784 -0.72,7.33074 -2.03556,10.12948 -1.62347,3.45378 -1.8261,4.88139 -1.00091,7.0518 1.38186,3.63457 0.0542,6.0056 -7.90076,14.10963 -6.34926,6.46825 -8.59026,7.55881 -10.86277,5.2863 z m 50.46667,-11.46667 c -1.43447,-1.43447 -0.47819,-3.61708 4.2082,-9.6048 15.91799,-20.3381 23.56329,-54.85631 16.30272,-73.60608 C 763.44743,503.90723 756.70132,498 747.4816,498 c -12.01111,0 -19.90553,8.1531 -22.99644,23.75 l -0.64407,3.25 5.32945,0.01 c 18.70743,0.0343 32.02248,21.06768 27.84773,43.99023 -3.18124,17.46737 -15.95954,29 -32.13238,29 -3.80252,0 -4.87246,-0.38233 -5.3589,-1.91496 -1.3144,-4.1413 0.51973,-7.12931 5.84851,-9.52792 9.19188,-4.13748 15.40365,-13.03004 16.3437,-23.39707 0.87968,-9.70122 -2.40704,-16.42966 -9.8905,-20.24744 -6.2574,-3.19229 -8.10581,-2.40244 -9.31176,3.97902 -1.94108,10.27156 -6.44972,9.06028 -10.89277,-2.92643 -9.21105,-24.85007 -2.04291,-51.03674 16.59148,-60.61207 4.78937,-2.46103 6.31471,-2.71819 16.28435,-2.74539 9.06669,-0.0247 11.9806,0.36002 16.57935,2.18913 10.22256,4.06592 16.67777,11.69439 20.66313,24.41871 2.6855,8.57417 2.16023,28.77512 -1.06062,40.78961 -5.01171,18.69482 -13.46589,34.67488 -24.42063,46.15979 -5.31218,5.56926 -7.11158,6.65134 -8.59456,5.16835 z M 654.633,274.0696 c 10.44496,-1.98085 41.60486,-6.12621 56.867,-7.56531 35.62529,-3.35919 84.04768,-2.91347 117,1.07698 11.72795,1.42023 36.52407,5.01435 41.5,6.0153 4.25903,0.85674 -3.33699,-3.0678 -14.52358,-7.50371 -13.48363,-5.34678 -31.12317,-9.68748 -47.47642,-11.68289 -16.54234,-2.01849 -55.07645,-1.45729 -73,1.06316 -22.1021,3.10804 -57.09744,10.7128 -82.5,17.92789 -5.86487,1.6658 -4.83216,1.9895 2.133,0.66858 z M 801.91198,216.25 C 797.30376,204.04735 782.49325,182.85924 768.99236,169.15477 747.06496,146.89671 716.01261,130.17983 689,126.09126 c -10.32468,-1.56272 -15.00045,-1.95131 -14.9941,-1.2461 0.003,0.36016 5.06575,2.39421 11.25,4.52011 40.85506,14.04432 79.58512,42.17245 108.70566,78.94866 4.65385,5.87734 8.58022,10.68607 8.72525,10.68607 0.14503,0 -0.20364,-1.2375 -0.77483,-2.75 z m 160.75469,990.0833 C 962.3,1205.9667 962,1204.8559 962,1203.8649 c 0,-1.943 3.67809,-4.842 22.5,-17.7341 6.6,-4.5207 16.275,-11.1943 21.5,-14.8304 27.0571,-18.8287 86.0534,-59.2586 87.9628,-60.2805 1.2064,-0.6457 2.8333,-0.9284 3.6153,-0.6283 2.8528,1.0947 1.3171,4.4062 -4.2722,9.2122 -3.1318,2.6929 -12.9343,11.1962 -21.7834,18.8962 -8.8491,7.7 -24.1351,20.975 -33.9689,29.5 -9.8338,8.525 -23.9456,20.7875 -31.3594,27.25 L 992.71442,1207 h -14.69054 c -8.0798,0 -14.99055,-0.3 -15.35721,-0.6667 z m -30,-1 C 932.3,1204.9667 932,1203.6515 932,1202.4108 c 0,-2.3597 2.50045,-4.6382 57.06671,-52.0027 6.91169,-5.9994 15.41769,-13.3831 18.90219,-16.4081 3.4844,-3.025 8.1523,-7.075 10.373,-9 2.2207,-1.925 11.5168,-10.025 20.6581,-18 9.1413,-7.975 18.5848,-16.2053 20.9856,-18.2896 4.8011,-4.1679 7.5144,-4.4727 7.5144,-0.844 0,1.7597 -14.3629,16.6729 -58,60.2221 l -58,57.8832 -9.08333,0.014 c -4.99584,0.01 -9.38334,-0.2858 -9.75,-0.6525 z M 337.68171,1191.75 c -7.30078,-7.2875 -16.66269,-17.075 -20.80423,-21.75 -85.04972,-96.0045 -133.95669,-229.2134 -130.52005,-355.5 0.75984,-27.92191 1.73393,-38.49395 5.75868,-62.5 C 204.72699,676.78097 234.04963,613.36097 281.1586,559.41589 294.5323,544.1015 316.84319,523 319.66159,523 c 2.24266,0 2.62495,0.68771 3.8912,7 1.32658,6.61296 6.42928,15.81424 11.00235,19.83962 2.44467,2.15189 4.44486,4.43901 4.44486,5.08249 0,0.64348 -3.13069,5.79405 -6.95709,11.44571 -35.58855,52.56487 -58.82183,113.4783 -67.94226,178.13218 -3.68758,26.14095 -4.55527,38.8304 -4.54717,66.5 0.008,27.87089 0.9597,42.21963 4.4763,67.5 13.53288,97.28621 57.38083,187.3403 121.89693,250.3497 27.08668,26.4541 56.43384,48.0311 86.57329,63.6516 10.77823,5.5861 12.96158,7.469 12.0373,10.3812 L 483.86522,1205 h -66.45468 -66.45468 z m 492.32886,11.7627 c -0.67888,-0.818 -0.99995,-2.0555 -0.7135,-2.75 0.28645,-0.6945 7.8743,-10.0649 16.86188,-20.8232 23.07852,-27.6254 29.9682,-36.2922 29.76254,-37.4395 -0.0986,-0.55 -34.38884,-10.7578 -76.20055,-22.684 -41.81172,-11.9262 -76.37232,-22.2519 -76.80135,-22.9461 -1.07407,-1.7379 -0.63655,-2.4362 15.4683,-24.6888 31.96759,-44.1707 61.37619,-84.88947 65.61211,-90.84565 2.475,-3.48013 9.93812,-13.86679 16.5847,-23.08148 6.64659,-9.21468 17.92116,-24.85397 25.05459,-34.75397 11.66647,-16.19108 20.51753,-28.43248 47.35931,-65.5 4.58013,-6.325 9.75576,-13.525 11.5014,-16 1.74564,-2.475 6.74177,-9.45 11.10252,-15.5 11.82086,-16.39998 15.41645,-22.11979 17.82522,-28.35614 1.75867,-4.55321 2.65264,-5.68893 4.6261,-5.87709 2.07835,-0.19817 3.27031,1.07991 7.92726,8.5 7.48789,11.93072 37.18629,57.27247 50.01558,76.36082 5.77682,8.59517 17.34442,23.89517 25.70582,34 34.782,42.03441 42.2429,51.46839 42.2696,53.4481 0.015,1.14162 -0.9846,2.98475 -2.2221,4.09583 -1.2375,1.11109 -27.225,16.28592 -57.75,33.72188 -49.09973,28.0458 -58.31035,33.705 -79.86999,49.0741 -21.25759,15.1538 -29.20548,21.1432 -25.63001,19.3144 0.55,-0.2813 31.49967,-18.7973 68.77705,-41.1467 C 1004.5544,1007.2859 1035.9419,989 1037.0271,989 c 2.6087,0 2.6294,3.67138 0.036,6.43555 -1.0653,1.13545 -7.105,9.48945 -13.4217,18.56445 -6.3167,9.075 -12.9033,18.525 -14.637,21 -3.0706,4.3834 -18.79773,26.9753 -38.0045,54.5931 -5.225,7.5132 -11.54829,16.6408 -14.05176,20.2836 -7.42906,10.8101 -14.03037,20.2967 -17.83015,25.6233 -5.56625,7.8029 -0.67,3.0631 8.26313,-7.999 4.44189,-5.5006 13.48576,-16.5546 20.09747,-24.5646 6.61172,-8.0099 13.45107,-16.3349 15.19856,-18.5 3.93761,-4.8785 16.23955,-19.8773 50.32275,-61.3546 14.575,-17.737 27.9214,-34.12394 29.6586,-36.41544 1.7372,-2.2915 13.8427,-21.71636 26.9012,-43.16636 13.0584,-21.45 29.9146,-49.125 37.4582,-61.5 9.174,-15.04976 14.7259,-25.31454 16.7669,-31 1.6783,-4.675 6.6519,-18.4 11.0526,-30.5 4.4007,-12.1 10.8245,-29.875 14.2753,-39.5 15.9787,-44.56866 16.3351,-45.46402 18.2434,-45.83079 1.0209,-0.19622 2.2539,0.0409 2.7399,0.52685 0.5114,0.51149 -5.0148,22.34503 -13.1221,51.84378 -7.7031,28.02809 -16.6602,61.31016 -19.9047,73.96016 -3.2445,12.65 -8.8096,31.1 -12.3669,41 -29.647,82.50833 -39.023,108.1715 -39.9143,109.25 -0.5681,0.6875 -1.5797,1.25 -2.248,1.25 -0.6682,0 -6.6416,-5.1708 -13.2741,-11.4907 -8.2877,-7.89699 -12.2297,-11.04632 -12.6044,-10.06994 -0.3348,0.87257 1.6509,3.43978 5.1466,6.65395 30.0667,27.64449 35.0678,33.43599 32.4265,37.55139 -0.4041,0.6296 -12.4337,8.6786 -26.7326,17.8868 -39.5118,25.4448 -36.9365,23.6406 -70.0108,49.0482 -7.488,5.7522 -39.07451,32.0182 -65.9913,54.8755 -26.56462,22.5582 -51.30895,43.154 -54.21793,45.1281 L 893.72091,1205 H 862.4829 c -26.42829,0 -31.42806,-0.229 -32.47233,-1.4873 z M 221.96368,1185.2632 C 172.39872,1135.0258 135.09389,1077.5772 108.47941,1010.5 50.59157,864.60363 55.258555,693.61048 121.22543,543.5 140.31104,500.06986 168.66308,453.11072 197.90292,416.5 220.49601,388.21157 247.87069,360.13357 275.5,336.90927 289.72756,324.95004 301.89301,316 303.92116,316 c 4.59453,0 2.11049,3.45145 -14.81336,20.58247 -9.73547,9.85464 -22.56595,23.63073 -28.51218,30.61353 -77.61893,91.14981 -128.3221,209.13309 -143.02211,332.804 -5.60272,47.13564 -5.58857,102.90059 0.0378,149 3.82433,31.33438 12.11814,71.21725 20.03708,96.35337 23.87312,75.77743 57.77659,137.06203 106.29821,192.14663 9.78551,11.1091 39.16431,39.427 51.34042,49.4865 8.64361,7.1411 13.67494,11.973 13.48657,12.9519 -0.26435,1.3739 -4.50512,1.5932 -35.28576,1.8248 l -34.9853,0.2633 z M 1052.6172,928.52169 c -8.0648,-9.61307 -14.8897,-18.06819 -15.1663,-18.78917 -0.4974,-1.296 3.6953,-8.36047 7.2598,-12.23252 3.6701,-3.98672 14.508,-19.65232 19.848,-28.68901 5.6423,-9.54845 10.742,-21.50917 11.9643,-28.06099 l 0.6996,-3.75 h -41.5633 -41.56322 l -3.14428,4.57006 c -2.08437,3.02953 -3.64505,4.37789 -4.62983,4 C 985.50492,845.25653 984.64823,845 984.41821,845 984.1882,845 984,826.14814 984,803.10699 c 0,-47.2241 -0.17806,-46.2109 6.98396,-39.74045 4.42151,3.99457 11.63444,6.86545 22.01604,8.76277 7.9031,1.44436 48.5388,1.68417 62.75,0.37032 8.3372,-0.77079 8.3607,-0.81519 5.7424,-10.86755 -4.7628,-18.28542 -18.4472,-35.1453 -36.4924,-44.96042 -7.6261,-4.148 -16.8486,-6.10725 -36.4203,-7.73724 -26.86572,-2.23746 -47.66108,2.47383 -61.5797,13.95119 -9.09033,7.49593 -17.38323,11.01961 -18.50861,7.86439 C 927.97319,729.29715 925,683.01027 925,676.39584 v -4.46331 l 7.25,-3.35316 c 3.9875,-1.84425 18.275,-8.62286 31.75,-15.06359 21.15111,-10.10972 32.05247,-14.59425 53.874,-22.16231 11.1639,-3.87181 29.0614,-13.23107 40.626,-21.24473 17.4203,-12.07137 34.5265,-30.36484 34.8496,-37.26822 0.1358,-2.90169 -0.1896,-3.28926 -3.3496,-3.98934 -1.925,-0.42647 -11.6,-1.0811 -21.5,-1.45473 -41.862,-1.57988 -65.9853,5.59366 -85.25326,25.3518 -5.45958,5.59847 -8.76285,8.26768 -9.75871,7.88553 -1.31919,-0.50622 -1.47343,-7.21734 -1.24673,-54.24691 0.29846,-61.91671 -0.24847,-58.74756 8.88364,-51.47647 2.94191,2.34239 9.09264,6.04569 13.66829,8.22955 20.58087,9.82284 40.35747,11.39591 99.20677,7.89109 35.1944,-2.09602 57.6911,-8.90397 69.6424,-21.07518 4.8464,-4.93548 9.3576,-12.15144 9.3576,-14.96789 0,-0.84863 0.6872,-2.52407 1.5271,-3.72321 1.1786,-1.68271 2.0301,-1.99421 3.731,-1.36498 2.8902,1.06917 3.5837,4.43372 4.39,21.29962 3.1501,65.89513 -34.5316,132.30095 -92.1037,162.31281 -5.5244,2.87983 -12.637,6.27761 -15.8057,7.55062 -3.1687,1.27301 -5.4187,2.59144 -5,2.92984 0.4187,0.3384 3.0113,1.16551 5.7613,1.83802 7.2516,1.77337 22.0276,9.15053 29.2149,14.586 30.6726,23.19643 47.1733,64.54603 43.4953,108.99616 -3.8835,46.93374 -21.9999,92.04656 -52.0396,129.58715 -10.3558,12.94168 -24.3452,27 -26.8675,27 -1.3936,0 -6.5824,-5.4352 -16.6859,-17.47831 z"
       id="path1" />
  </g>
</svg>
